<svg width="42" height="42" viewBox="0 0 42 42" fill="none" xmlns="http://www.w3.org/2000/svg">
<g id="Frame" clip-path="url(#clip0_179_1387)">
<g id="user">
<path id="Trazado 3874" d="M14.7504 32.9277L8.48404 36.3466C8.12368 36.5475 7.78648 36.7873 7.47852 37.0619C11.249 40.2392 16.0177 41.9876 20.9485 42.0003C25.8792 42.0131 30.6569 40.2895 34.4438 37.1317C34.1064 36.8418 33.7355 36.5934 33.3389 36.3919L26.6278 33.0359C26.2027 32.8235 25.8451 32.4969 25.5952 32.0927C25.3453 31.6885 25.213 31.2227 25.213 30.7474V28.1146C25.4383 27.8534 25.6501 27.5809 25.8476 27.298C26.753 26.0115 27.4564 24.5941 27.9334 23.095C28.364 22.9641 28.7413 22.6989 29.0103 22.3381C29.2792 21.9773 29.4256 21.5399 29.428 21.0899V18.281C29.4267 17.9866 29.3635 17.6958 29.2425 17.4275C29.1214 17.1591 28.9453 16.9193 28.7255 16.7235V12.6612C28.7255 12.6612 29.5628 6.33887 21.001 6.33887C12.4393 6.33887 13.2746 12.6602 13.2746 12.6602V16.7225C13.0546 16.9182 12.8783 17.158 12.7573 17.4264C12.6363 17.6947 12.5731 17.9856 12.5721 18.28V21.0899C12.5726 21.4428 12.6618 21.7899 12.8315 22.0993C13.0012 22.4088 13.2459 22.6706 13.5432 22.8608C14.0095 24.7727 14.8753 26.5642 16.0836 28.1176V30.6855C16.0829 31.1444 15.9588 31.5948 15.7243 31.9893C15.4897 32.3838 15.1533 32.7079 14.7504 32.9277Z" fill="#243143"/>
<g id="Grupo 15169">
<path id="Trazado 3875" d="M21.3582 -0.000103238C17.0211 -0.0771764 12.7667 1.19148 9.18024 3.63135C5.59376 6.07121 2.85142 9.56241 1.33047 13.6247C-0.190491 17.6869 -0.415332 22.1207 0.68687 26.3159C1.78907 30.5112 4.16417 34.2619 7.48542 37.0521C7.79038 36.7802 8.12428 36.5427 8.48111 36.3437L14.7475 32.9258C15.1512 32.7058 15.4881 32.3811 15.7229 31.9858C15.9577 31.5906 16.0816 31.1393 16.0816 30.6796V28.1117C14.873 26.5586 14.0072 24.767 13.5412 22.855C13.244 22.6647 12.9994 22.4028 12.8297 22.0934C12.66 21.784 12.5708 21.4369 12.5701 21.084V18.28C12.5718 17.9862 12.6352 17.6959 12.7562 17.4281C12.8772 17.1603 13.0532 16.921 13.2726 16.7255V12.6612C13.2726 12.6612 12.4383 6.33989 20.9991 6.33989C29.5598 6.33989 28.7284 12.6612 28.7284 12.6612V16.7255C28.9484 16.9212 29.1247 17.161 29.2457 17.4294C29.3667 17.6977 29.4299 17.9886 29.4309 18.283V21.0929C29.4285 21.5429 29.2822 21.9803 29.0132 22.3411C28.7443 22.7019 28.367 22.9671 27.9364 23.098C27.4593 24.5971 26.7559 26.0145 25.8506 27.301C25.6531 27.5839 25.4413 27.8564 25.216 28.1176V30.7504C25.216 31.2257 25.3483 31.6915 25.5982 32.0957C25.8481 32.4999 26.2057 32.8265 26.6308 33.0389L33.3409 36.3929C33.7362 36.5945 34.1062 36.8426 34.4428 37.1318C37.738 34.3899 40.115 30.7051 41.2543 26.5726C42.3936 22.4401 42.2406 18.0579 40.8159 14.0149C39.3912 9.97184 36.7631 6.46177 33.2847 3.95637C29.8063 1.45097 25.6444 0.0703001 21.3582 -0.000103238Z" fill="#F7F8F9"/>
</g>
</g>
</g>
<defs>
<clipPath id="clip0_179_1387">
<rect width="42" height="42" fill="white"/>
</clipPath>
</defs>
</svg>
