<svg width="26" height="26" viewBox="0 0 26 26" fill="none" xmlns="http://www.w3.org/2000/svg">
<path id="Vector" d="M5.2292 0.542521C5.88812 0.678702 6.41286 1.12141 6.73889 1.7063L7.77747 3.56955C8.16003 4.25581 8.48196 4.83333 8.69219 5.33537C8.91522 5.86792 9.04767 6.39309 8.98712 6.97372C8.92657 7.55435 8.68861 8.04089 8.36052 8.51598C8.05122 8.96384 7.61704 9.46251 7.10113 10.0551L5.57443 11.8088C5.30086 12.123 5.16406 12.28 5.15156 12.4764C5.13906 12.6728 5.25118 12.8406 5.4754 13.1761C7.38648 16.0354 9.96213 18.6119 12.8237 20.5246C13.1593 20.7489 13.327 20.861 13.5234 20.8485C13.7198 20.836 13.877 20.6992 14.1911 20.4256L15.9449 18.8989C16.5374 18.383 17.0361 17.9488 17.484 17.6395C17.959 17.3114 18.4456 17.0734 19.0262 17.0129C19.6069 16.9523 20.1321 17.0848 20.6646 17.3078C21.1666 17.518 21.7441 17.84 22.4303 18.2224L24.2937 19.2611C24.8785 19.5871 25.3213 20.1119 25.4575 20.7708C25.595 21.4366 25.3921 22.1057 24.9438 22.6558C23.3172 24.6515 20.7111 25.9222 17.9773 25.3707C16.2969 25.0317 14.6388 24.4669 12.6334 23.3169C8.60401 21.006 4.99127 17.3913 2.68312 13.3666C1.53302 11.3612 0.96826 9.70316 0.629272 8.02268C0.0777805 5.2888 1.34847 2.68276 3.34417 1.05618C3.89419 0.607891 4.56341 0.404909 5.2292 0.542521Z" fill="#1565C0"/>
</svg>
